<?xml version="1.0" encoding="UTF-8" standalone="no"?>
<!DOCTYPE svg PUBLIC "-//W3C//DTD SVG 1.1//EN"
 "http://www.w3.org/Graphics/SVG/1.1/DTD/svg11.dtd">
<!-- Generated by graphviz version 2.46.0 (20210119.1425)
 -->
<!-- Title: dependencies Pages: 1 -->
<svg width="695pt" height="284pt"
 viewBox="0.00 0.00 695.00 284.00" xmlns="http://www.w3.org/2000/svg" xmlns:xlink="http://www.w3.org/1999/xlink">
<g id="graph0" class="graph" transform="scale(1 1) rotate(0) translate(4 280)">
<title>dependencies</title>
<polygon fill="white" stroke="transparent" points="-4,4 -4,-280 691,-280 691,4 -4,4"/>
<text text-anchor="start" x="322.51" y="-42.4" font-family="sans-serif" font-weight="bold" font-size="14.00">Legend</text>
<polygon fill="#ffffb3" stroke="transparent" points="109.5,-10 109.5,-30 129.5,-30 129.5,-10 109.5,-10"/>
<text text-anchor="start" x="133.13" y="-15.4" font-family="sans-serif" font-size="14.00"> &#160;Declarations</text>
<polygon fill="#8dd3c7" stroke="transparent" points="222.5,-10 222.5,-30 242.5,-30 242.5,-10 222.5,-10"/>
<text text-anchor="start" x="246.23" y="-15.4" font-family="sans-serif" font-size="14.00"> &#160;Module</text>
<polygon fill="#80b1d3" stroke="transparent" points="308.5,-10 308.5,-30 328.5,-30 328.5,-10 308.5,-10"/>
<text text-anchor="start" x="332.28" y="-15.4" font-family="sans-serif" font-size="14.00"> &#160;Bootstrap</text>
<polygon fill="#fdb462" stroke="transparent" points="405.5,-10 405.5,-30 425.5,-30 425.5,-10 405.5,-10"/>
<text text-anchor="start" x="429.17" y="-15.4" font-family="sans-serif" font-size="14.00"> &#160;Providers</text>
<polygon fill="#fb8072" stroke="transparent" points="501.5,-10 501.5,-30 521.5,-30 521.5,-10 501.5,-10"/>
<text text-anchor="start" x="525.23" y="-15.4" font-family="sans-serif" font-size="14.00"> &#160;Exports</text>
<g id="clust1" class="cluster">
<title>cluster_SharedModule</title>
<polygon fill="none" stroke="black" stroke-dasharray="1,5" points="8,-70 8,-268 679,-268 679,-70 8,-70"/>
</g>
<g id="clust2" class="cluster">
<title>cluster_SharedModule_declarations</title>
<polygon fill="none" stroke="black" points="16,-78 16,-130 671,-130 671,-78 16,-78"/>
</g>
<g id="clust8" class="cluster">
<title>cluster_SharedModule_exports</title>
<polygon fill="none" stroke="black" points="97,-208 97,-260 591,-260 591,-208 97,-208"/>
</g>
<!-- ArtistCardComponent -->
<g id="node1" class="node">
<title>ArtistCardComponent</title>
<polygon fill="#ffffb3" stroke="black" points="663.43,-122 522.57,-122 522.57,-86 663.43,-86 663.43,-122"/>
<text text-anchor="middle" x="593" y="-99.8" font-family="Times,serif" font-size="14.00">ArtistCardComponent</text>
</g>
<!-- SharedModule -->
<g id="node5" class="node">
<title>SharedModule</title>
<polygon fill="#8dd3c7" stroke="black" points="398.42,-187 395.42,-191 374.42,-191 371.42,-187 299.58,-187 299.58,-151 398.42,-151 398.42,-187"/>
<text text-anchor="middle" x="349" y="-164.8" font-family="Times,serif" font-size="14.00">SharedModule</text>
</g>
<!-- ArtistCardComponent&#45;&gt;SharedModule -->
<g id="edge1" class="edge">
<title>ArtistCardComponent&#45;&gt;SharedModule</title>
<path fill="none" stroke="black" d="M552.88,-122.02C552.88,-139.37 552.88,-163 552.88,-163 552.88,-163 408.35,-163 408.35,-163"/>
<polygon fill="black" stroke="black" points="408.35,-159.5 398.35,-163 408.35,-166.5 408.35,-159.5"/>
</g>
<!-- EventCardComponent -->
<g id="node2" class="node">
<title>EventCardComponent</title>
<polygon fill="#ffffb3" stroke="black" points="504.7,-122 363.3,-122 363.3,-86 504.7,-86 504.7,-122"/>
<text text-anchor="middle" x="434" y="-99.8" font-family="Times,serif" font-size="14.00">EventCardComponent</text>
</g>
<!-- EventCardComponent&#45;&gt;SharedModule -->
<g id="edge2" class="edge">
<title>EventCardComponent&#45;&gt;SharedModule</title>
<path fill="none" stroke="black" d="M380.81,-122.11C380.81,-122.11 380.81,-140.99 380.81,-140.99"/>
<polygon fill="black" stroke="black" points="377.31,-140.99 380.81,-150.99 384.31,-140.99 377.31,-140.99"/>
</g>
<!-- EventDetailsComponent -->
<g id="node3" class="node">
<title>EventDetailsComponent</title>
<polygon fill="#ffffb3" stroke="black" points="345.64,-122 192.36,-122 192.36,-86 345.64,-86 345.64,-122"/>
<text text-anchor="middle" x="269" y="-99.8" font-family="Times,serif" font-size="14.00">EventDetailsComponent</text>
</g>
<!-- EventDetailsComponent&#45;&gt;SharedModule -->
<g id="edge3" class="edge">
<title>EventDetailsComponent&#45;&gt;SharedModule</title>
<path fill="none" stroke="black" d="M322.81,-122.11C322.81,-122.11 322.81,-140.99 322.81,-140.99"/>
<polygon fill="black" stroke="black" points="319.31,-140.99 322.81,-150.99 326.31,-140.99 319.31,-140.99"/>
</g>
<!-- SearchFilterComponent -->
<g id="node4" class="node">
<title>SearchFilterComponent</title>
<polygon fill="#ffffb3" stroke="black" points="173.75,-122 24.25,-122 24.25,-86 173.75,-86 173.75,-122"/>
<text text-anchor="middle" x="99" y="-99.8" font-family="Times,serif" font-size="14.00">SearchFilterComponent</text>
</g>
<!-- SearchFilterComponent&#45;&gt;SharedModule -->
<g id="edge4" class="edge">
<title>SearchFilterComponent&#45;&gt;SharedModule</title>
<path fill="none" stroke="black" d="M139.62,-122.02C139.62,-139.37 139.62,-163 139.62,-163 139.62,-163 289.65,-163 289.65,-163"/>
<polygon fill="black" stroke="black" points="289.65,-166.5 299.65,-163 289.65,-159.5 289.65,-166.5"/>
</g>
<!-- ArtistCardComponent  -->
<g id="node6" class="node">
<title>ArtistCardComponent </title>
<polygon fill="#fb8072" stroke="black" points="582.93,-252 439.07,-252 439.07,-216 582.93,-216 582.93,-252"/>
<text text-anchor="middle" x="511" y="-229.8" font-family="Times,serif" font-size="14.00">ArtistCardComponent </text>
</g>
<!-- SharedModule&#45;&gt;ArtistCardComponent  -->
<g id="edge5" class="edge">
<title>SharedModule&#45;&gt;ArtistCardComponent </title>
<path fill="none" stroke="black" stroke-dasharray="5,2" d="M398.25,-175C432.42,-175 471.82,-175 471.82,-175 471.82,-175 471.82,-205.98 471.82,-205.98"/>
<polygon fill="black" stroke="black" points="468.32,-205.98 471.82,-215.98 475.32,-205.98 468.32,-205.98"/>
</g>
<!-- EventCardComponent  -->
<g id="node7" class="node">
<title>EventCardComponent </title>
<polygon fill="#fb8072" stroke="black" points="421.2,-252 276.8,-252 276.8,-216 421.2,-216 421.2,-252"/>
<text text-anchor="middle" x="349" y="-229.8" font-family="Times,serif" font-size="14.00">EventCardComponent </text>
</g>
<!-- SharedModule&#45;&gt;EventCardComponent  -->
<g id="edge6" class="edge">
<title>SharedModule&#45;&gt;EventCardComponent </title>
<path fill="none" stroke="black" stroke-dasharray="5,2" d="M349,-187.11C349,-187.11 349,-205.99 349,-205.99"/>
<polygon fill="black" stroke="black" points="345.5,-205.99 349,-215.99 352.5,-205.99 345.5,-205.99"/>
</g>
<!-- SearchFilterComponent  -->
<g id="node8" class="node">
<title>SearchFilterComponent </title>
<polygon fill="#fb8072" stroke="black" points="258.75,-252 105.25,-252 105.25,-216 258.75,-216 258.75,-252"/>
<text text-anchor="middle" x="182" y="-229.8" font-family="Times,serif" font-size="14.00">SearchFilterComponent </text>
</g>
<!-- SharedModule&#45;&gt;SearchFilterComponent  -->
<g id="edge7" class="edge">
<title>SharedModule&#45;&gt;SearchFilterComponent </title>
<path fill="none" stroke="black" stroke-dasharray="5,2" d="M299.44,-175C265.05,-175 225.4,-175 225.4,-175 225.4,-175 225.4,-205.98 225.4,-205.98"/>
<polygon fill="black" stroke="black" points="221.9,-205.98 225.4,-215.98 228.9,-205.98 221.9,-205.98"/>
</g>
</g>
</svg>
