<?xml version="1.0" encoding="UTF-8" standalone="no"?>
<!DOCTYPE svg PUBLIC "-//W3C//DTD SVG 1.1//EN"
 "http://www.w3.org/Graphics/SVG/1.1/DTD/svg11.dtd">
<!-- Generated by graphviz version 2.46.0 (20210119.1425)
 -->
<!-- Title: dependencies Pages: 1 -->
<svg width="883pt" height="211pt"
 viewBox="0.00 0.00 883.00 211.00" xmlns="http://www.w3.org/2000/svg" xmlns:xlink="http://www.w3.org/1999/xlink">
<g id="graph0" class="graph" transform="scale(1 1) rotate(0) translate(4 207)">
<title>dependencies</title>
<polygon fill="white" stroke="transparent" points="-4,4 -4,-207 879,-207 879,4 -4,4"/>
<text text-anchor="start" x="416.51" y="-42.4" font-family="sans-serif" font-weight="bold" font-size="14.00">Legend</text>
<polygon fill="#ffffb3" stroke="transparent" points="203.5,-10 203.5,-30 223.5,-30 223.5,-10 203.5,-10"/>
<text text-anchor="start" x="227.13" y="-15.4" font-family="sans-serif" font-size="14.00"> &#160;Declarations</text>
<polygon fill="#8dd3c7" stroke="transparent" points="316.5,-10 316.5,-30 336.5,-30 336.5,-10 316.5,-10"/>
<text text-anchor="start" x="340.23" y="-15.4" font-family="sans-serif" font-size="14.00"> &#160;Module</text>
<polygon fill="#80b1d3" stroke="transparent" points="402.5,-10 402.5,-30 422.5,-30 422.5,-10 402.5,-10"/>
<text text-anchor="start" x="426.28" y="-15.4" font-family="sans-serif" font-size="14.00"> &#160;Bootstrap</text>
<polygon fill="#fdb462" stroke="transparent" points="499.5,-10 499.5,-30 519.5,-30 519.5,-10 499.5,-10"/>
<text text-anchor="start" x="523.17" y="-15.4" font-family="sans-serif" font-size="14.00"> &#160;Providers</text>
<polygon fill="#fb8072" stroke="transparent" points="595.5,-10 595.5,-30 615.5,-30 615.5,-10 595.5,-10"/>
<text text-anchor="start" x="619.23" y="-15.4" font-family="sans-serif" font-size="14.00"> &#160;Exports</text>
<g id="clust1" class="cluster">
<title>cluster_MainDashboardModule</title>
<polygon fill="none" stroke="black" stroke-dasharray="1,5" points="8,-70 8,-195 867,-195 867,-70 8,-70"/>
</g>
<g id="clust2" class="cluster">
<title>cluster_MainDashboardModule_declarations</title>
<polygon fill="none" stroke="black" points="499,-78 499,-130 859,-130 859,-78 499,-78"/>
</g>
<g id="clust8" class="cluster">
<title>cluster_MainDashboardModule_providers</title>
<polygon fill="none" stroke="black" points="351,-78 351,-130 491,-130 491,-78 351,-78"/>
</g>
<g id="clust5" class="cluster">
<title>cluster_MainDashboardModule_imports</title>
<polygon fill="none" stroke="black" points="16,-78 16,-130 343,-130 343,-78 16,-78"/>
</g>
<!-- HomeSearchComponent -->
<g id="node1" class="node">
<title>HomeSearchComponent</title>
<polygon fill="#ffffb3" stroke="black" points="850.63,-122 697.37,-122 697.37,-86 850.63,-86 850.63,-122"/>
<text text-anchor="middle" x="774" y="-99.8" font-family="Times,serif" font-size="14.00">HomeSearchComponent</text>
</g>
<!-- MainDashboardModule -->
<g id="node3" class="node">
<title>MainDashboardModule</title>
<polygon fill="#8dd3c7" stroke="black" points="495.74,-187 492.74,-191 471.74,-191 468.74,-187 346.26,-187 346.26,-151 495.74,-151 495.74,-187"/>
<text text-anchor="middle" x="421" y="-164.8" font-family="Times,serif" font-size="14.00">MainDashboardModule</text>
</g>
<!-- HomeSearchComponent&#45;&gt;MainDashboardModule -->
<g id="edge1" class="edge">
<title>HomeSearchComponent&#45;&gt;MainDashboardModule</title>
<path fill="none" stroke="black" d="M774,-122.11C774,-141.34 774,-169 774,-169 774,-169 505.86,-169 505.86,-169"/>
<polygon fill="black" stroke="black" points="505.86,-165.5 495.86,-169 505.86,-172.5 505.86,-165.5"/>
</g>
<!-- MainDashboardComponent -->
<g id="node2" class="node">
<title>MainDashboardComponent</title>
<polygon fill="#ffffb3" stroke="black" points="678.52,-122 507.48,-122 507.48,-86 678.52,-86 678.52,-122"/>
<text text-anchor="middle" x="593" y="-99.8" font-family="Times,serif" font-size="14.00">MainDashboardComponent</text>
</g>
<!-- MainDashboardComponent&#45;&gt;MainDashboardModule -->
<g id="edge2" class="edge">
<title>MainDashboardComponent&#45;&gt;MainDashboardModule</title>
<path fill="none" stroke="black" d="M507.47,-104C496.74,-104 489.43,-104 489.43,-104 489.43,-104 489.43,-140.89 489.43,-140.89"/>
<polygon fill="black" stroke="black" points="485.93,-140.89 489.43,-150.89 492.93,-140.89 485.93,-140.89"/>
</g>
<!-- MainDashboardRoutingModule -->
<g id="node4" class="node">
<title>MainDashboardRoutingModule</title>
<polygon fill="#8dd3c7" stroke="black" points="335.36,-122 332.36,-126 311.36,-126 308.36,-122 140.64,-122 140.64,-86 335.36,-86 335.36,-122"/>
<text text-anchor="middle" x="238" y="-99.8" font-family="Times,serif" font-size="14.00">MainDashboardRoutingModule</text>
</g>
<!-- MainDashboardRoutingModule&#45;&gt;MainDashboardModule -->
<g id="edge3" class="edge">
<title>MainDashboardRoutingModule&#45;&gt;MainDashboardModule</title>
<path fill="none" stroke="black" d="M335.67,-104C345.85,-104 352.57,-104 352.57,-104 352.57,-104 352.57,-140.89 352.57,-140.89"/>
<polygon fill="black" stroke="black" points="349.07,-140.89 352.57,-150.89 356.07,-140.89 349.07,-140.89"/>
</g>
<!-- SharedModule -->
<g id="node5" class="node">
<title>SharedModule</title>
<polygon fill="#8dd3c7" stroke="black" points="122.42,-122 119.42,-126 98.42,-126 95.42,-122 23.58,-122 23.58,-86 122.42,-86 122.42,-122"/>
<text text-anchor="middle" x="73" y="-99.8" font-family="Times,serif" font-size="14.00">SharedModule</text>
</g>
<!-- SharedModule&#45;&gt;MainDashboardModule -->
<g id="edge4" class="edge">
<title>SharedModule&#45;&gt;MainDashboardModule</title>
<path fill="none" stroke="black" d="M73,-122.11C73,-141.34 73,-169 73,-169 73,-169 335.92,-169 335.92,-169"/>
<polygon fill="black" stroke="black" points="335.92,-172.5 345.92,-169 335.92,-165.5 335.92,-172.5"/>
</g>
<!-- ArtistService -->
<g id="node6" class="node">
<title>ArtistService</title>
<ellipse fill="#fdb462" stroke="black" cx="421" cy="-104" rx="61.97" ry="18"/>
<text text-anchor="middle" x="421" y="-99.8" font-family="Times,serif" font-size="14.00">ArtistService</text>
</g>
<!-- ArtistService&#45;&gt;MainDashboardModule -->
<g id="edge5" class="edge">
<title>ArtistService&#45;&gt;MainDashboardModule</title>
<path fill="none" stroke="black" d="M421,-122.11C421,-122.11 421,-140.99 421,-140.99"/>
<polygon fill="black" stroke="black" points="417.5,-140.99 421,-150.99 424.5,-140.99 417.5,-140.99"/>
</g>
</g>
</svg>
