<?xml version="1.0" encoding="UTF-8" standalone="no"?>
<!DOCTYPE svg PUBLIC "-//W3C//DTD SVG 1.1//EN"
 "http://www.w3.org/Graphics/SVG/1.1/DTD/svg11.dtd">
<!-- Generated by graphviz version 2.46.0 (20210119.1425)
 -->
<!-- Title: dependencies Pages: 1 -->
<svg width="1580pt" height="436pt"
 viewBox="0.00 0.00 1580.00 436.00" xmlns="http://www.w3.org/2000/svg" xmlns:xlink="http://www.w3.org/1999/xlink">
<g id="graph0" class="graph" transform="scale(1 1) rotate(0) translate(4 432)">
<title>dependencies</title>
<polygon fill="white" stroke="transparent" points="-4,4 -4,-432 1576,-432 1576,4 -4,4"/>
<text text-anchor="start" x="765.01" y="-42.4" font-family="sans-serif" font-weight="bold" font-size="14.00">Legend</text>
<polygon fill="#ffffb3" stroke="transparent" points="552,-10 552,-30 572,-30 572,-10 552,-10"/>
<text text-anchor="start" x="575.63" y="-15.4" font-family="sans-serif" font-size="14.00"> &#160;Declarations</text>
<polygon fill="#8dd3c7" stroke="transparent" points="665,-10 665,-30 685,-30 685,-10 665,-10"/>
<text text-anchor="start" x="688.73" y="-15.4" font-family="sans-serif" font-size="14.00"> &#160;Module</text>
<polygon fill="#80b1d3" stroke="transparent" points="751,-10 751,-30 771,-30 771,-10 751,-10"/>
<text text-anchor="start" x="774.78" y="-15.4" font-family="sans-serif" font-size="14.00"> &#160;Bootstrap</text>
<polygon fill="#fdb462" stroke="transparent" points="848,-10 848,-30 868,-30 868,-10 848,-10"/>
<text text-anchor="start" x="871.67" y="-15.4" font-family="sans-serif" font-size="14.00"> &#160;Providers</text>
<polygon fill="#fb8072" stroke="transparent" points="944,-10 944,-30 964,-30 964,-10 944,-10"/>
<text text-anchor="start" x="967.73" y="-15.4" font-family="sans-serif" font-size="14.00"> &#160;Exports</text>
<g id="clust1" class="cluster">
<title>cluster_AppModule</title>
<polygon fill="none" stroke="black" stroke-dasharray="1,5" points="567,-222 567,-420 1247,-420 1247,-222 567,-222"/>
</g>
<g id="clust2" class="cluster">
<title>cluster_AppModule_declarations</title>
<polygon fill="none" stroke="black" points="1117,-230 1117,-282 1239,-282 1239,-230 1117,-230"/>
</g>
<g id="clust4" class="cluster">
<title>cluster_AppModule_imports</title>
<polygon fill="none" stroke="black" points="575,-230 575,-282 1109,-282 1109,-230 575,-230"/>
</g>
<g id="clust6" class="cluster">
<title>cluster_AppModule_bootstrap</title>
<polygon fill="none" stroke="black" points="818,-360 818,-412 942,-412 942,-360 818,-360"/>
</g>
<g id="clust14" class="cluster">
<title>cluster_CoreModule</title>
<polygon fill="none" stroke="black" stroke-dasharray="1,5" points="674,-146 674,-214 814,-214 814,-146 674,-146"/>
</g>
<g id="clust19" class="cluster">
<title>cluster_CoreModule_providers</title>
<polygon fill="none" stroke="black" points="682,-154 682,-206 806,-206 806,-154 682,-154"/>
</g>
<g id="clust20" class="cluster">
<title>cluster_LayoutModule</title>
<polygon fill="none" stroke="black" stroke-dasharray="1,5" points="240,-146 240,-214 666,-214 666,-146 240,-146"/>
</g>
<g id="clust21" class="cluster">
<title>cluster_LayoutModule_declarations</title>
<polygon fill="none" stroke="black" points="398,-154 398,-206 536,-206 536,-154 398,-154"/>
</g>
<g id="clust23" class="cluster">
<title>cluster_LayoutModule_imports</title>
<polygon fill="none" stroke="black" points="544,-154 544,-206 658,-206 658,-154 544,-154"/>
</g>
<g id="clust24" class="cluster">
<title>cluster_LayoutModule_exports</title>
<polygon fill="none" stroke="black" points="248,-154 248,-206 390,-206 390,-154 248,-154"/>
</g>
<g id="clust27" class="cluster">
<title>cluster_MainDashboardModule</title>
<polygon fill="none" stroke="black" stroke-dasharray="1,5" points="822,-146 822,-214 1564,-214 1564,-146 822,-146"/>
</g>
<g id="clust28" class="cluster">
<title>cluster_MainDashboardModule_declarations</title>
<polygon fill="none" stroke="black" points="1196,-154 1196,-206 1556,-206 1556,-154 1196,-154"/>
</g>
<g id="clust31" class="cluster">
<title>cluster_MainDashboardModule_imports</title>
<polygon fill="none" stroke="black" points="978,-154 978,-206 1188,-206 1188,-154 978,-154"/>
</g>
<g id="clust34" class="cluster">
<title>cluster_MainDashboardModule_providers</title>
<polygon fill="none" stroke="black" points="830,-154 830,-206 970,-206 970,-154 830,-154"/>
</g>
<g id="clust41" class="cluster">
<title>cluster_SharedModule</title>
<polygon fill="none" stroke="black" stroke-dasharray="1,5" points="8,-70 8,-138 1181,-138 1181,-70 8,-70"/>
</g>
<g id="clust42" class="cluster">
<title>cluster_SharedModule_declarations</title>
<polygon fill="none" stroke="black" points="518,-78 518,-130 1173,-130 1173,-78 518,-78"/>
</g>
<g id="clust48" class="cluster">
<title>cluster_SharedModule_exports</title>
<polygon fill="none" stroke="black" points="16,-78 16,-130 510,-130 510,-78 16,-78"/>
</g>
<!-- AppComponent -->
<g id="node1" class="node">
<title>AppComponent</title>
<polygon fill="#ffffb3" stroke="black" points="1230.94,-274 1125.06,-274 1125.06,-238 1230.94,-238 1230.94,-274"/>
<text text-anchor="middle" x="1178" y="-251.8" font-family="Times,serif" font-size="14.00">AppComponent</text>
</g>
<!-- AppModule -->
<g id="node2" class="node">
<title>AppModule</title>
<polygon fill="#8dd3c7" stroke="black" points="921.66,-339 918.66,-343 897.66,-343 894.66,-339 838.34,-339 838.34,-303 921.66,-303 921.66,-339"/>
<text text-anchor="middle" x="880" y="-316.8" font-family="Times,serif" font-size="14.00">AppModule</text>
</g>
<!-- AppComponent&#45;&gt;AppModule -->
<g id="edge1" class="edge">
<title>AppComponent&#45;&gt;AppModule</title>
<path fill="none" stroke="black" d="M1178,-274.28C1178,-295.32 1178,-327 1178,-327 1178,-327 931.75,-327 931.75,-327"/>
<polygon fill="black" stroke="black" points="931.75,-323.5 921.75,-327 931.75,-330.5 931.75,-323.5"/>
</g>
<!-- AppComponent  -->
<g id="node7" class="node">
<title>AppComponent </title>
<polygon fill="#80b1d3" stroke="black" points="934.44,-404 825.56,-404 825.56,-368 934.44,-368 934.44,-404"/>
<text text-anchor="middle" x="880" y="-381.8" font-family="Times,serif" font-size="14.00">AppComponent </text>
</g>
<!-- AppModule&#45;&gt;AppComponent  -->
<g id="edge6" class="edge">
<title>AppModule&#45;&gt;AppComponent </title>
<path fill="none" stroke="black" stroke-dasharray="1,5" d="M880,-339.11C880,-339.11 880,-357.99 880,-357.99"/>
<polygon fill="black" stroke="black" points="876.5,-357.99 880,-367.99 883.5,-357.99 876.5,-357.99"/>
</g>
<!-- AppRoutingModule -->
<g id="node3" class="node">
<title>AppRoutingModule</title>
<polygon fill="#8dd3c7" stroke="black" points="1101.27,-274 1098.27,-278 1077.27,-278 1074.27,-274 972.73,-274 972.73,-238 1101.27,-238 1101.27,-274"/>
<text text-anchor="middle" x="1037" y="-251.8" font-family="Times,serif" font-size="14.00">AppRoutingModule</text>
</g>
<!-- AppRoutingModule&#45;&gt;AppModule -->
<g id="edge2" class="edge">
<title>AppRoutingModule&#45;&gt;AppModule</title>
<path fill="none" stroke="black" d="M1037,-274.02C1037,-291.37 1037,-315 1037,-315 1037,-315 931.66,-315 931.66,-315"/>
<polygon fill="black" stroke="black" points="931.66,-311.5 921.66,-315 931.66,-318.5 931.66,-311.5"/>
</g>
<!-- CoreModule -->
<g id="node4" class="node">
<title>CoreModule</title>
<polygon fill="#8dd3c7" stroke="black" points="787.26,-274 784.26,-278 763.26,-278 760.26,-274 700.74,-274 700.74,-238 787.26,-238 787.26,-274"/>
<text text-anchor="middle" x="744" y="-251.8" font-family="Times,serif" font-size="14.00">CoreModule</text>
</g>
<!-- CoreModule&#45;&gt;AppModule -->
<g id="edge3" class="edge">
<title>CoreModule&#45;&gt;AppModule</title>
<path fill="none" stroke="black" d="M744,-274.02C744,-291.37 744,-315 744,-315 744,-315 828.09,-315 828.09,-315"/>
<polygon fill="black" stroke="black" points="828.09,-318.5 838.09,-315 828.09,-311.5 828.09,-318.5"/>
</g>
<!-- LayoutModule -->
<g id="node5" class="node">
<title>LayoutModule</title>
<polygon fill="#8dd3c7" stroke="black" points="682.71,-274 679.71,-278 658.71,-278 655.71,-274 583.29,-274 583.29,-238 682.71,-238 682.71,-274"/>
<text text-anchor="middle" x="633" y="-251.8" font-family="Times,serif" font-size="14.00">LayoutModule</text>
</g>
<!-- LayoutModule&#45;&gt;AppModule -->
<g id="edge4" class="edge">
<title>LayoutModule&#45;&gt;AppModule</title>
<path fill="none" stroke="black" d="M633,-274.28C633,-295.32 633,-327 633,-327 633,-327 828.1,-327 828.1,-327"/>
<polygon fill="black" stroke="black" points="828.1,-330.5 838.1,-327 828.1,-323.5 828.1,-330.5"/>
</g>
<!-- HeaderComponent  -->
<g id="node11" class="node">
<title>HeaderComponent </title>
<polygon fill="#fb8072" stroke="black" points="381.74,-198 256.26,-198 256.26,-162 381.74,-162 381.74,-198"/>
<text text-anchor="middle" x="319" y="-175.8" font-family="Times,serif" font-size="14.00">HeaderComponent </text>
</g>
<!-- LayoutModule&#45;&gt;HeaderComponent  -->
<g id="edge10" class="edge">
<title>LayoutModule&#45;&gt;HeaderComponent </title>
<path fill="none" stroke="black" stroke-dasharray="5,2" d="M583.25,-262C494.71,-262 319,-262 319,-262 319,-262 319,-208.2 319,-208.2"/>
<polygon fill="black" stroke="black" points="322.5,-208.2 319,-198.2 315.5,-208.2 322.5,-208.2"/>
</g>
<!-- MainDashboardModule -->
<g id="node6" class="node">
<title>MainDashboardModule</title>
<polygon fill="#8dd3c7" stroke="black" points="954.74,-274 951.74,-278 930.74,-278 927.74,-274 805.26,-274 805.26,-238 954.74,-238 954.74,-274"/>
<text text-anchor="middle" x="880" y="-251.8" font-family="Times,serif" font-size="14.00">MainDashboardModule</text>
</g>
<!-- MainDashboardModule&#45;&gt;AppModule -->
<g id="edge5" class="edge">
<title>MainDashboardModule&#45;&gt;AppModule</title>
<path fill="none" stroke="black" d="M880,-274.11C880,-274.11 880,-292.99 880,-292.99"/>
<polygon fill="black" stroke="black" points="876.5,-292.99 880,-302.99 883.5,-292.99 876.5,-292.99"/>
</g>
<!-- ApiService -->
<g id="node8" class="node">
<title>ApiService</title>
<ellipse fill="#fdb462" stroke="black" cx="744" cy="-180" rx="54.45" ry="18"/>
<text text-anchor="middle" x="744" y="-175.8" font-family="Times,serif" font-size="14.00">ApiService</text>
</g>
<!-- ApiService&#45;&gt;CoreModule -->
<g id="edge7" class="edge">
<title>ApiService&#45;&gt;CoreModule</title>
<path fill="none" stroke="black" d="M744,-198.01C744,-198.01 744,-227.85 744,-227.85"/>
<polygon fill="black" stroke="black" points="740.5,-227.85 744,-237.85 747.5,-227.85 740.5,-227.85"/>
</g>
<!-- HeaderComponent -->
<g id="node9" class="node">
<title>HeaderComponent</title>
<polygon fill="#ffffb3" stroke="black" points="527.74,-198 406.26,-198 406.26,-162 527.74,-162 527.74,-198"/>
<text text-anchor="middle" x="467" y="-175.8" font-family="Times,serif" font-size="14.00">HeaderComponent</text>
</g>
<!-- HeaderComponent&#45;&gt;LayoutModule -->
<g id="edge8" class="edge">
<title>HeaderComponent&#45;&gt;LayoutModule</title>
<path fill="none" stroke="black" d="M467,-198.03C467,-218.77 467,-250 467,-250 467,-250 573.19,-250 573.19,-250"/>
<polygon fill="black" stroke="black" points="573.19,-253.5 583.19,-250 573.19,-246.5 573.19,-253.5"/>
</g>
<!-- SharedModule -->
<g id="node10" class="node">
<title>SharedModule</title>
<polygon fill="#8dd3c7" stroke="black" points="650.42,-198 647.42,-202 626.42,-202 623.42,-198 551.58,-198 551.58,-162 650.42,-162 650.42,-198"/>
<text text-anchor="middle" x="601" y="-175.8" font-family="Times,serif" font-size="14.00">SharedModule</text>
</g>
<!-- SharedModule&#45;&gt;LayoutModule -->
<g id="edge9" class="edge">
<title>SharedModule&#45;&gt;LayoutModule</title>
<path fill="none" stroke="black" d="M605.67,-198.01C605.67,-198.01 605.67,-227.85 605.67,-227.85"/>
<polygon fill="black" stroke="black" points="602.17,-227.85 605.67,-237.85 609.17,-227.85 602.17,-227.85"/>
</g>
<!-- SharedModule&#45;&gt;MainDashboardModule -->
<g id="edge14" class="edge">
<title>SharedModule&#45;&gt;MainDashboardModule</title>
<path fill="none" stroke="black" d="M627.94,-198.15C627.94,-211.74 627.94,-228 627.94,-228 627.94,-228 821.57,-228 821.57,-228 821.57,-228 821.57,-228.98 821.57,-228.98"/>
<polygon fill="black" stroke="black" points="818.07,-227.79 821.57,-237.79 825.07,-227.79 818.07,-227.79"/>
</g>
<!-- ArtistCardComponent  -->
<g id="node20" class="node">
<title>ArtistCardComponent </title>
<polygon fill="#fb8072" stroke="black" points="501.93,-122 358.07,-122 358.07,-86 501.93,-86 501.93,-122"/>
<text text-anchor="middle" x="430" y="-99.8" font-family="Times,serif" font-size="14.00">ArtistCardComponent </text>
</g>
<!-- SharedModule&#45;&gt;ArtistCardComponent  -->
<g id="edge20" class="edge">
<title>SharedModule&#45;&gt;ArtistCardComponent </title>
<path fill="none" stroke="black" stroke-dasharray="5,2" d="M588.7,-161.81C588.7,-146.82 588.7,-128 588.7,-128 588.7,-128 454.05,-128 454.05,-128 454.05,-128 454.05,-127.42 454.05,-127.42"/>
<polygon fill="black" stroke="black" points="457.55,-132.19 454.05,-122.19 450.55,-132.19 457.55,-132.19"/>
</g>
<!-- EventCardComponent  -->
<g id="node21" class="node">
<title>EventCardComponent </title>
<polygon fill="#fb8072" stroke="black" points="340.2,-122 195.8,-122 195.8,-86 340.2,-86 340.2,-122"/>
<text text-anchor="middle" x="268" y="-99.8" font-family="Times,serif" font-size="14.00">EventCardComponent </text>
</g>
<!-- SharedModule&#45;&gt;EventCardComponent  -->
<g id="edge21" class="edge">
<title>SharedModule&#45;&gt;EventCardComponent </title>
<path fill="none" stroke="black" stroke-dasharray="5,2" d="M576.39,-161.82C576.39,-148.96 576.39,-134 576.39,-134 576.39,-134 298.36,-134 298.36,-134 298.36,-134 298.36,-132.14 298.36,-132.14"/>
<polygon fill="black" stroke="black" points="301.86,-132.14 298.36,-122.14 294.86,-132.14 301.86,-132.14"/>
</g>
<!-- SearchFilterComponent  -->
<g id="node22" class="node">
<title>SearchFilterComponent </title>
<polygon fill="#fb8072" stroke="black" points="177.75,-122 24.25,-122 24.25,-86 177.75,-86 177.75,-122"/>
<text text-anchor="middle" x="101" y="-99.8" font-family="Times,serif" font-size="14.00">SearchFilterComponent </text>
</g>
<!-- SharedModule&#45;&gt;SearchFilterComponent  -->
<g id="edge22" class="edge">
<title>SharedModule&#45;&gt;SearchFilterComponent </title>
<path fill="none" stroke="black" stroke-dasharray="5,2" d="M564.09,-161.87C564.09,-151.29 564.09,-140 564.09,-140 564.09,-140 101,-140 101,-140 101,-140 101,-132.42 101,-132.42"/>
<polygon fill="black" stroke="black" points="104.5,-132.42 101,-122.42 97.5,-132.42 104.5,-132.42"/>
</g>
<!-- HomeSearchComponent -->
<g id="node12" class="node">
<title>HomeSearchComponent</title>
<polygon fill="#ffffb3" stroke="black" points="1547.63,-198 1394.37,-198 1394.37,-162 1547.63,-162 1547.63,-198"/>
<text text-anchor="middle" x="1471" y="-175.8" font-family="Times,serif" font-size="14.00">HomeSearchComponent</text>
</g>
<!-- HomeSearchComponent&#45;&gt;MainDashboardModule -->
<g id="edge11" class="edge">
<title>HomeSearchComponent&#45;&gt;MainDashboardModule</title>
<path fill="none" stroke="black" d="M1471,-198.11C1471,-207.9 1471,-218 1471,-218 1471,-218 925.66,-218 925.66,-218 925.66,-218 925.66,-227.89 925.66,-227.89"/>
<polygon fill="black" stroke="black" points="922.16,-227.89 925.66,-237.89 929.16,-227.89 922.16,-227.89"/>
</g>
<!-- MainDashboardComponent -->
<g id="node13" class="node">
<title>MainDashboardComponent</title>
<polygon fill="#ffffb3" stroke="black" points="1375.52,-198 1204.48,-198 1204.48,-162 1375.52,-162 1375.52,-198"/>
<text text-anchor="middle" x="1290" y="-175.8" font-family="Times,serif" font-size="14.00">MainDashboardComponent</text>
</g>
<!-- MainDashboardComponent&#45;&gt;MainDashboardModule -->
<g id="edge12" class="edge">
<title>MainDashboardComponent&#45;&gt;MainDashboardModule</title>
<path fill="none" stroke="black" d="M1217.48,-198.21C1217.48,-203.55 1217.48,-208 1217.48,-208 1217.48,-208 896.44,-208 896.44,-208 896.44,-208 896.44,-227.85 896.44,-227.85"/>
<polygon fill="black" stroke="black" points="892.94,-227.85 896.44,-237.85 899.94,-227.85 892.94,-227.85"/>
</g>
<!-- MainDashboardRoutingModule -->
<g id="node14" class="node">
<title>MainDashboardRoutingModule</title>
<polygon fill="#8dd3c7" stroke="black" points="1180.36,-198 1177.36,-202 1156.36,-202 1153.36,-198 985.64,-198 985.64,-162 1180.36,-162 1180.36,-198"/>
<text text-anchor="middle" x="1083" y="-175.8" font-family="Times,serif" font-size="14.00">MainDashboardRoutingModule</text>
</g>
<!-- MainDashboardRoutingModule&#45;&gt;MainDashboardModule -->
<g id="edge13" class="edge">
<title>MainDashboardRoutingModule&#45;&gt;MainDashboardModule</title>
<path fill="none" stroke="black" d="M985.63,-180C974.64,-180 967.3,-180 967.3,-180 967.3,-180 967.3,-256 967.3,-256 967.3,-256 964.79,-256 964.79,-256"/>
<polygon fill="black" stroke="black" points="964.79,-252.5 954.79,-256 964.79,-259.5 964.79,-252.5"/>
</g>
<!-- ArtistService -->
<g id="node15" class="node">
<title>ArtistService</title>
<ellipse fill="#fdb462" stroke="black" cx="900" cy="-180" rx="61.97" ry="18"/>
<text text-anchor="middle" x="900" y="-175.8" font-family="Times,serif" font-size="14.00">ArtistService</text>
</g>
<!-- ArtistService&#45;&gt;MainDashboardModule -->
<g id="edge15" class="edge">
<title>ArtistService&#45;&gt;MainDashboardModule</title>
<path fill="none" stroke="black" d="M867.23,-195.38C867.23,-195.38 867.23,-227.97 867.23,-227.97"/>
<polygon fill="black" stroke="black" points="863.73,-227.97 867.23,-237.97 870.73,-227.97 863.73,-227.97"/>
</g>
<!-- ArtistCardComponent -->
<g id="node16" class="node">
<title>ArtistCardComponent</title>
<polygon fill="#ffffb3" stroke="black" points="1165.43,-122 1024.57,-122 1024.57,-86 1165.43,-86 1165.43,-122"/>
<text text-anchor="middle" x="1095" y="-99.8" font-family="Times,serif" font-size="14.00">ArtistCardComponent</text>
</g>
<!-- ArtistCardComponent&#45;&gt;SharedModule -->
<g id="edge16" class="edge">
<title>ArtistCardComponent&#45;&gt;SharedModule</title>
<path fill="none" stroke="black" d="M1095,-122.24C1095,-137.57 1095,-157 1095,-157 1095,-157 637.91,-157 637.91,-157 637.91,-157 637.91,-157.49 637.91,-157.49"/>
<polygon fill="black" stroke="black" points="634.41,-151.88 637.91,-161.88 641.41,-151.88 634.41,-151.88"/>
</g>
<!-- EventCardComponent -->
<g id="node17" class="node">
<title>EventCardComponent</title>
<polygon fill="#ffffb3" stroke="black" points="1006.7,-122 865.3,-122 865.3,-86 1006.7,-86 1006.7,-122"/>
<text text-anchor="middle" x="936" y="-99.8" font-family="Times,serif" font-size="14.00">EventCardComponent</text>
</g>
<!-- EventCardComponent&#45;&gt;SharedModule -->
<g id="edge17" class="edge">
<title>EventCardComponent&#45;&gt;SharedModule</title>
<path fill="none" stroke="black" d="M913.69,-122.04C913.69,-135.29 913.69,-151 913.69,-151 913.69,-151 625.61,-151 625.61,-151 625.61,-151 625.61,-152.08 625.61,-152.08"/>
<polygon fill="black" stroke="black" points="622.11,-151.8 625.61,-161.8 629.11,-151.8 622.11,-151.8"/>
</g>
<!-- EventDetailsComponent -->
<g id="node18" class="node">
<title>EventDetailsComponent</title>
<polygon fill="#ffffb3" stroke="black" points="847.64,-122 694.36,-122 694.36,-86 847.64,-86 847.64,-122"/>
<text text-anchor="middle" x="771" y="-99.8" font-family="Times,serif" font-size="14.00">EventDetailsComponent</text>
</g>
<!-- EventDetailsComponent&#45;&gt;SharedModule -->
<g id="edge18" class="edge">
<title>EventDetailsComponent&#45;&gt;SharedModule</title>
<path fill="none" stroke="black" d="M746.33,-122.1C746.33,-133.09 746.33,-145 746.33,-145 746.33,-145 613.3,-145 613.3,-145 613.3,-145 613.3,-151.68 613.3,-151.68"/>
<polygon fill="black" stroke="black" points="609.8,-151.68 613.3,-161.68 616.8,-151.68 609.8,-151.68"/>
</g>
<!-- SearchFilterComponent -->
<g id="node19" class="node">
<title>SearchFilterComponent</title>
<polygon fill="#ffffb3" stroke="black" points="675.75,-122 526.25,-122 526.25,-86 675.75,-86 675.75,-122"/>
<text text-anchor="middle" x="601" y="-99.8" font-family="Times,serif" font-size="14.00">SearchFilterComponent</text>
</g>
<!-- SearchFilterComponent&#45;&gt;SharedModule -->
<g id="edge19" class="edge">
<title>SearchFilterComponent&#45;&gt;SharedModule</title>
<path fill="none" stroke="black" d="M601,-122.01C601,-122.01 601,-151.85 601,-151.85"/>
<polygon fill="black" stroke="black" points="597.5,-151.85 601,-161.85 604.5,-151.85 597.5,-151.85"/>
</g>
</g>
</svg>
